<svg width="512" height="512" viewBox="0 0 512 512" fill="none" xmlns="http://www.w3.org/2000/svg">
  <rect width="512" height="512" rx="128" fill="#020617"/>
  <circle cx="256" cy="256" r="190" fill="#34D399"/>
  <path d="M148 276C205 245 242 194 270 126C306 194 358 241 430 264C359 272 302 309 268 386C235 315 195 286 148 276Z" fill="#020617"/>
  <circle cx="292" cy="210" r="16" fill="#34D399"/>
  <path d="M321 230L380 208L334 257L321 230Z" fill="#020617"/>
  <path d="M183 324C222 332 266 322 307 293C281 339 240 363 190 365C178 366 171 330 183 324Z" fill="#020617"/>
</svg>